<svg width="87" height="38" viewBox="0 0 87 38" fill="none" xmlns="http://www.w3.org/2000/svg">
<path d="M19.0149 16.1847H16.799C16.7138 15.7112 16.5552 15.2945 16.3232 14.9347C16.0911 14.5748 15.8071 14.2694 15.4709 14.0185C15.1347 13.7675 14.7583 13.5781 14.3416 13.4503C13.9297 13.3224 13.4917 13.2585 13.0277 13.2585C12.1896 13.2585 11.4392 13.4692 10.7763 13.8906C10.1181 14.312 9.5973 14.9299 9.21378 15.7443C8.83499 16.5587 8.6456 17.553 8.6456 18.7273C8.6456 19.911 8.83499 20.91 9.21378 21.7244C9.5973 22.5388 10.1205 23.1544 10.7834 23.571C11.4463 23.9877 12.192 24.196 13.0206 24.196C13.4799 24.196 13.9155 24.1345 14.3274 24.0114C14.7441 23.8835 15.1205 23.6965 15.4567 23.4503C15.7929 23.2041 16.0769 22.9034 16.3089 22.5483C16.5457 22.1884 16.709 21.7765 16.799 21.3125L19.0149 21.3196C18.8965 22.0346 18.6669 22.6927 18.326 23.294C17.9898 23.8906 17.5566 24.4067 17.0263 24.8423C16.5007 25.2732 15.8994 25.607 15.2223 25.8438C14.5452 26.0805 13.8066 26.1989 13.0064 26.1989C11.7469 26.1989 10.6248 25.9006 9.63991 25.304C8.65507 24.7027 7.87855 23.8433 7.31037 22.7259C6.74692 21.6084 6.4652 20.2756 6.4652 18.7273C6.4652 17.1742 6.74929 15.8414 7.31747 14.7287C7.88565 13.6113 8.66217 12.7543 9.64702 12.1577C10.6319 11.5563 11.7517 11.2557 13.0064 11.2557C13.7782 11.2557 14.4979 11.367 15.1655 11.5895C15.8378 11.8073 16.4415 12.1293 16.9766 12.5554C17.5116 12.9768 17.9543 13.4929 18.3047 14.1037C18.6551 14.7098 18.8918 15.4034 19.0149 16.1847ZM26.0657 26.2202C25.043 26.2202 24.1504 25.9858 23.3881 25.517C22.6258 25.0483 22.034 24.3925 21.6126 23.5497C21.1912 22.7069 20.9805 21.7221 20.9805 20.5952C20.9805 19.4635 21.1912 18.474 21.6126 17.6264C22.034 16.7789 22.6258 16.1207 23.3881 15.652C24.1504 15.1832 25.043 14.9489 26.0657 14.9489C27.0884 14.9489 27.9809 15.1832 28.7433 15.652C29.5056 16.1207 30.0974 16.7789 30.5188 17.6264C30.9402 18.474 31.1509 19.4635 31.1509 20.5952C31.1509 21.7221 30.9402 22.7069 30.5188 23.5497C30.0974 24.3925 29.5056 25.0483 28.7433 25.517C27.9809 25.9858 27.0884 26.2202 26.0657 26.2202ZM26.0728 24.4375C26.7357 24.4375 27.2849 24.2623 27.7205 23.9119C28.1561 23.5616 28.4781 23.0952 28.6864 22.5128C28.8995 21.9304 29.006 21.2888 29.006 20.5881C29.006 19.892 28.8995 19.2528 28.6864 18.6705C28.4781 18.0833 28.1561 17.6122 27.7205 17.2571C27.2849 16.902 26.7357 16.7244 26.0728 16.7244C25.4052 16.7244 24.8512 16.902 24.4109 17.2571C23.9753 17.6122 23.6509 18.0833 23.4379 18.6705C23.2295 19.2528 23.1254 19.892 23.1254 20.5881C23.1254 21.2888 23.2295 21.9304 23.4379 22.5128C23.6509 23.0952 23.9753 23.5616 24.4109 23.9119C24.8512 24.2623 25.4052 24.4375 26.0728 24.4375ZM35.6449 19.5227V26H33.5213V15.0909H35.5597V16.8665H35.6946C35.9455 16.2888 36.3385 15.8248 36.8736 15.4744C37.4134 15.1241 38.0928 14.9489 38.9119 14.9489C39.6553 14.9489 40.3063 15.1051 40.8651 15.4176C41.4238 15.7254 41.857 16.1847 42.1648 16.7955C42.4725 17.4062 42.6264 18.1615 42.6264 19.0611V26H40.5028V19.3168C40.5028 18.526 40.2969 17.9081 39.8849 17.4631C39.473 17.0133 38.9072 16.7884 38.1875 16.7884C37.6951 16.7884 37.2571 16.8949 36.8736 17.108C36.4948 17.321 36.1941 17.6335 35.9716 18.0455C35.7538 18.4527 35.6449 18.9451 35.6449 19.5227ZM50.5668 15.0909V16.7955H44.608V15.0909H50.5668ZM46.206 12.4773H48.3295V22.7969C48.3295 23.2088 48.3911 23.5189 48.5142 23.7273C48.6373 23.9309 48.7959 24.0705 48.9901 24.1463C49.1889 24.2173 49.4044 24.2528 49.6364 24.2528C49.8068 24.2528 49.956 24.241 50.0838 24.2173C50.2116 24.1937 50.3111 24.1747 50.3821 24.1605L50.7656 25.9148C50.6425 25.9621 50.4673 26.0095 50.2401 26.0568C50.0128 26.1089 49.7287 26.1373 49.3878 26.142C48.8291 26.1515 48.3082 26.0521 47.8253 25.8437C47.3423 25.6354 46.9517 25.3134 46.6534 24.8778C46.3551 24.4422 46.206 23.8954 46.206 23.2372V12.4773ZM56.0906 26.2415C55.3993 26.2415 54.7743 26.1136 54.2156 25.858C53.6568 25.5975 53.2141 25.2211 52.8874 24.7287C52.5655 24.2363 52.4045 23.6326 52.4045 22.9176C52.4045 22.3021 52.5228 21.7955 52.7596 21.3977C52.9963 21 53.3159 20.6851 53.7184 20.4531C54.1209 20.2211 54.5707 20.0459 55.0678 19.9276C55.565 19.8092 56.0716 19.7192 56.5877 19.6577C57.2411 19.5819 57.7714 19.5204 58.1786 19.473C58.5858 19.4209 58.8817 19.3381 59.0664 19.2244C59.2511 19.1108 59.3434 18.9261 59.3434 18.6705V18.6207C59.3434 18.0005 59.1682 17.5199 58.8178 17.179C58.4722 16.8381 57.9561 16.6676 57.2695 16.6676C56.5546 16.6676 55.9911 16.8262 55.5792 17.1435C55.172 17.456 54.8903 17.804 54.734 18.1875L52.7383 17.733C52.975 17.0701 53.3207 16.535 53.7752 16.1278C54.2345 15.7159 54.7624 15.4176 55.359 15.233C55.9556 15.0436 56.583 14.9489 57.2411 14.9489C57.6767 14.9489 58.1384 15.0009 58.6261 15.1051C59.1185 15.2045 59.5778 15.3892 60.0039 15.6591C60.4348 15.929 60.7875 16.3149 61.0621 16.8168C61.3368 17.3139 61.4741 17.9602 61.4741 18.7557V26H59.4002V24.5085H59.315C59.1777 24.7831 58.9717 25.053 58.6971 25.3182C58.4225 25.5833 58.0697 25.8035 57.6388 25.9787C57.208 26.1539 56.6919 26.2415 56.0906 26.2415ZM56.5522 24.5369C57.1393 24.5369 57.6412 24.4209 58.0579 24.1889C58.4793 23.9569 58.7989 23.6539 59.0167 23.2798C59.2392 22.901 59.3505 22.4962 59.3505 22.0653V20.6591C59.2747 20.7348 59.128 20.8059 58.9102 20.8722C58.6971 20.9337 58.4532 20.9882 58.1786 21.0355C57.904 21.0781 57.6365 21.1184 57.3761 21.1562C57.1156 21.1894 56.8978 21.2178 56.7227 21.2415C56.3107 21.2936 55.9343 21.3812 55.5934 21.5043C55.2572 21.6274 54.9873 21.8049 54.7837 22.0369C54.5849 22.2642 54.4854 22.5672 54.4854 22.946C54.4854 23.4716 54.6796 23.8693 55.0678 24.1392C55.4561 24.4044 55.9509 24.5369 56.5522 24.5369ZM68.8977 26.2202C67.8419 26.2202 66.9328 25.9811 66.1705 25.5028C65.4129 25.0199 64.8305 24.3546 64.4233 23.5071C64.0161 22.6596 63.8125 21.6889 63.8125 20.5952C63.8125 19.4872 64.0208 18.5095 64.4375 17.6619C64.8542 16.8097 65.4413 16.1444 66.1989 15.6662C66.9564 15.188 67.849 14.9489 68.8764 14.9489C69.705 14.9489 70.4437 15.1027 71.0923 15.4105C71.741 15.7135 72.2642 16.1397 72.6619 16.6889C73.0644 17.2382 73.3035 17.8797 73.3793 18.6136H71.3125C71.1989 18.1023 70.9384 17.6619 70.5312 17.2926C70.1288 16.9233 69.589 16.7386 68.9119 16.7386C68.3201 16.7386 67.8016 16.8949 67.3565 17.2074C66.9162 17.5152 66.5729 17.9555 66.3267 18.5284C66.0805 19.0966 65.9574 19.7689 65.9574 20.5455C65.9574 21.3409 66.0781 22.0275 66.3196 22.6051C66.5611 23.1828 66.902 23.6302 67.3423 23.9474C67.7874 24.2647 68.3106 24.4233 68.9119 24.4233C69.3144 24.4233 69.679 24.3499 70.0057 24.2031C70.3371 24.0516 70.6141 23.8362 70.8366 23.5568C71.0639 23.2775 71.2225 22.9413 71.3125 22.5483H73.3793C73.3035 23.2538 73.0739 23.8835 72.6903 24.4375C72.3068 24.9915 71.7931 25.4271 71.1491 25.7443C70.5099 26.0616 69.7595 26.2202 68.8977 26.2202ZM80.7425 15.0909V16.7955H74.7837V15.0909H80.7425ZM76.3817 12.4773H78.5053V22.7969C78.5053 23.2088 78.5669 23.5189 78.69 23.7273C78.8131 23.9309 78.9717 24.0705 79.1658 24.1463C79.3647 24.2173 79.5801 24.2528 79.8121 24.2528C79.9826 24.2528 80.1317 24.241 80.2596 24.2173C80.3874 24.1937 80.4869 24.1747 80.5579 24.1605L80.9414 25.9148C80.8183 25.9621 80.6431 26.0095 80.4158 26.0568C80.1886 26.1089 79.9045 26.1373 79.5636 26.142C79.0049 26.1515 78.484 26.0521 78.0011 25.8437C77.5181 25.6354 77.1275 25.3134 76.8292 24.8778C76.5309 24.4422 76.3817 23.8954 76.3817 23.2372V12.4773Z" fill="#0DB760"/>
<path d="M86.75 19C86.75 21.5405 85.5723 23.9805 83.402 26.2217C81.2305 28.4642 78.0762 30.495 74.1591 32.2059C66.3255 35.6275 55.4861 37.75 43.5 37.75C31.5139 37.75 20.6745 35.6275 12.8409 32.2059C8.92377 30.495 5.76951 28.4642 3.59804 26.2217C1.42773 23.9805 0.25 21.5405 0.25 19C0.25 16.4595 1.42773 14.0195 3.59804 11.7783C5.76951 9.53585 8.92377 7.50501 12.8409 5.79407C20.6745 2.37252 31.5139 0.25 43.5 0.25C55.4861 0.25 66.3255 2.37252 74.1591 5.79407C78.0762 7.50501 81.2305 9.53585 83.402 11.7783C85.5723 14.0195 86.75 16.4595 86.75 19Z" stroke="#0DB760" stroke-width="0.5"/>
</svg>
