<svg width="14" height="14" viewBox="0 0 14 14" fill="none" xmlns="http://www.w3.org/2000/svg">
<path d="M5.00048 7C5.00048 5.89547 5.89567 4.99984 7.00024 4.99984C8.10481 4.99984 9.00048 5.89547 9.00048 7C9.00048 8.10453 8.10481 9.00016 7.00024 9.00016C5.89567 9.00016 5.00048 8.10453 5.00048 7ZM3.91919 7C3.91919 8.7016 5.29857 10.0809 7.00024 10.0809C8.70191 10.0809 10.0813 8.7016 10.0813 7C10.0813 5.2984 8.70191 3.91907 7.00024 3.91907C5.29857 3.91907 3.91924 5.2983 3.91924 7M9.48328 3.79691C9.48323 3.93932 9.5254 4.07854 9.60447 4.19697C9.68354 4.31541 9.79596 4.40774 9.9275 4.46228C10.059 4.51683 10.2038 4.53115 10.3435 4.50342C10.4832 4.4757 10.6115 4.40717 10.7122 4.30652C10.813 4.20587 10.8816 4.0776 10.9094 3.93795C10.9373 3.79829 10.9231 3.65352 10.8686 3.52193C10.8142 3.39035 10.722 3.27786 10.6036 3.1987C10.4852 3.11954 10.346 3.07726 10.2036 3.0772H10.2033C10.0124 3.07729 9.82938 3.15314 9.69438 3.28808C9.55937 3.42302 9.48345 3.60603 9.48328 3.79691ZM4.57614 11.8839C3.99114 11.8573 3.67318 11.7598 3.46187 11.6775C3.18174 11.5684 2.98186 11.4386 2.7717 11.2287C2.56155 11.0188 2.43147 10.8192 2.32288 10.539C2.24051 10.3278 2.14307 10.0098 2.11648 9.42482C2.08739 8.79237 2.08158 8.60238 2.08158 7.0001C2.08158 5.39781 2.08787 5.20835 2.11648 4.57538C2.14312 3.9904 2.24128 3.67298 2.32288 3.46115C2.43195 3.18102 2.56184 2.98115 2.7717 2.77101C2.98157 2.56086 3.18126 2.43078 3.46187 2.32221C3.67308 2.23984 3.99114 2.1424 4.57614 2.11581C5.20862 2.08672 5.39861 2.08091 7.00024 2.08091C8.60187 2.08091 8.79206 2.0871 9.42506 2.1159C10.0101 2.14254 10.3275 2.2407 10.5393 2.3223C10.8195 2.43088 11.0193 2.56125 11.2295 2.7711C11.4396 2.98096 11.5693 3.18112 11.6783 3.46125C11.7607 3.67245 11.8581 3.9905 11.8847 4.57547C11.9138 5.20845 11.9196 5.3979 11.9196 7.00019C11.9196 8.60248 11.9138 8.79194 11.8847 9.42491C11.8581 10.0099 11.7602 10.3278 11.6783 10.5391C11.5693 10.8193 11.4394 11.0191 11.2295 11.2288C11.0196 11.4385 10.8195 11.5685 10.5393 11.6776C10.3281 11.76 10.0101 11.8574 9.42506 11.884C8.79258 11.9131 8.60259 11.9189 7.00024 11.9189C5.39789 11.9189 5.20842 11.9131 4.57614 11.884M4.52646 1.03634C3.8877 1.06542 3.45122 1.1667 3.07003 1.31502C2.67551 1.46819 2.34108 1.67368 2.00713 2.00709C1.67318 2.3405 1.46821 2.67496 1.31504 3.06995C1.16671 3.45136 1.06543 3.88758 1.03634 4.52632C1.00677 5.16606 1 5.37059 1 7C1 8.62941 1.00677 8.83394 1.03634 9.47368C1.06543 10.1125 1.16671 10.5486 1.31504 10.93C1.46821 11.3246 1.67323 11.6596 2.00713 11.9929C2.34103 12.3262 2.67503 12.5314 3.07003 12.685C3.45194 12.8333 3.8877 12.9346 4.52646 12.9637C5.16657 12.9928 5.37077 13 7.00024 13C8.62971 13 8.83425 12.9932 9.47402 12.9637C10.1128 12.9346 10.549 12.8333 10.9304 12.685C11.325 12.5314 11.6594 12.3263 11.9934 11.9929C12.3273 11.6595 12.5318 11.3246 12.6854 10.93C12.8338 10.5486 12.9355 10.1124 12.9641 9.47368C12.9932 8.83346 13 8.62941 13 7C13 5.37059 12.9932 5.16606 12.9641 4.52632C12.9351 3.88754 12.8338 3.45112 12.6854 3.06995C12.5318 2.67544 12.3268 2.34102 11.9934 2.00709C11.6599 1.67315 11.325 1.46819 10.9309 1.31502C10.549 1.1667 10.1128 1.06494 9.4745 1.03634C8.83463 1.0071 8.63019 1 7.00096 1C5.37173 1 5.16681 1.00677 4.5267 1.03634" fill="white"/>
<path d="M5.00048 7C5.00048 5.89547 5.89567 4.99984 7.00024 4.99984C8.10481 4.99984 9.00048 5.89547 9.00048 7C9.00048 8.10453 8.10481 9.00016 7.00024 9.00016C5.89567 9.00016 5.00048 8.10453 5.00048 7M3.91919 7C3.91919 8.7016 5.29857 10.0809 7.00024 10.0809C8.70191 10.0809 10.0813 8.7016 10.0813 7C10.0813 5.2984 8.70191 3.91907 7.00024 3.91907C5.29857 3.91907 3.91924 5.2983 3.91924 7M9.48328 3.79691C9.48323 3.93931 9.5254 4.07854 9.60447 4.19697C9.68354 4.31541 9.79596 4.40774 9.9275 4.46228C10.059 4.51683 10.2038 4.53115 10.3435 4.50342C10.4832 4.4757 10.6115 4.40717 10.7122 4.30652C10.813 4.20587 10.8816 4.0776 10.9094 3.93795C10.9373 3.79829 10.9231 3.65352 10.8686 3.52193C10.8142 3.39035 10.722 3.27786 10.6036 3.1987C10.4852 3.11954 10.346 3.07726 10.2036 3.0772H10.2033C10.0124 3.07729 9.82938 3.15314 9.69438 3.28808C9.55937 3.42302 9.48345 3.60603 9.48328 3.79691M4.57614 11.8839C3.99114 11.8573 3.67318 11.7598 3.46187 11.6775C3.18174 11.5684 2.98186 11.4386 2.7717 11.2287C2.56155 11.0188 2.43147 10.8192 2.32288 10.539C2.24051 10.3278 2.14307 10.0098 2.11648 9.42482C2.08739 8.79237 2.08158 8.60238 2.08158 7.0001C2.08158 5.39781 2.08787 5.20835 2.11648 4.57538C2.14312 3.9904 2.24128 3.67298 2.32288 3.46115C2.43195 3.18102 2.56184 2.98115 2.7717 2.77101C2.98157 2.56086 3.18126 2.43078 3.46187 2.32221C3.67308 2.23984 3.99114 2.1424 4.57614 2.11581C5.20862 2.08672 5.39861 2.08091 7.00024 2.08091C8.60187 2.08091 8.79206 2.0871 9.42506 2.1159C10.0101 2.14254 10.3275 2.2407 10.5393 2.3223C10.8195 2.43088 11.0193 2.56125 11.2295 2.7711C11.4396 2.98096 11.5693 3.18112 11.6783 3.46125C11.7607 3.67245 11.8581 3.9905 11.8847 4.57547C11.9138 5.20845 11.9196 5.3979 11.9196 7.00019C11.9196 8.60248 11.9138 8.79194 11.8847 9.42491C11.8581 10.0099 11.7602 10.3278 11.6783 10.5391C11.5693 10.8193 11.4394 11.0191 11.2295 11.2288C11.0196 11.4385 10.8195 11.5685 10.5393 11.6776C10.3281 11.76 10.0101 11.8574 9.42506 11.884C8.79258 11.9131 8.60259 11.9189 7.00024 11.9189C5.39789 11.9189 5.20842 11.9131 4.57614 11.884M4.52646 1.03634C3.8877 1.06542 3.45122 1.1667 3.07003 1.31502C2.67551 1.46819 2.34108 1.67368 2.00713 2.00709C1.67318 2.3405 1.46821 2.67496 1.31504 3.06995C1.16671 3.45136 1.06543 3.88758 1.03634 4.52632C1.00677 5.16606 1 5.37059 1 7C1 8.62941 1.00677 8.83394 1.03634 9.47368C1.06543 10.1125 1.16671 10.5486 1.31504 10.93C1.46821 11.3246 1.67323 11.6596 2.00713 11.9929C2.34103 12.3262 2.67503 12.5314 3.07003 12.685C3.45194 12.8333 3.8877 12.9346 4.52646 12.9637C5.16657 12.9928 5.37077 13 7.00024 13C8.62971 13 8.83425 12.9932 9.47402 12.9637C10.1128 12.9346 10.549 12.8333 10.9304 12.685C11.325 12.5314 11.6594 12.3263 11.9934 11.9929C12.3273 11.6595 12.5318 11.3246 12.6854 10.93C12.8338 10.5486 12.9355 10.1124 12.9641 9.47368C12.9932 8.83346 13 8.62941 13 7C13 5.37059 12.9932 5.16606 12.9641 4.52632C12.9351 3.88754 12.8338 3.45112 12.6854 3.06995C12.5318 2.67544 12.3268 2.34102 11.9934 2.00709C11.6599 1.67315 11.325 1.46819 10.9309 1.31502C10.549 1.1667 10.1128 1.06494 9.4745 1.03634C8.83463 1.0071 8.63019 1 7.00096 1C5.37173 1 5.16681 1.00677 4.5267 1.03634" stroke="white" stroke-width="0.2"/>
</svg>
