<svg width="10" height="10" viewBox="0 0 10 10" fill="none" xmlns="http://www.w3.org/2000/svg">
<path d="M2.27004 9.99977V3.25254H0.126356V9.99977H2.27026H2.27004ZM1.19864 2.33148C1.94603 2.33148 2.41133 1.81338 2.41133 1.16589C2.39734 0.503647 1.94603 0 1.21286 0C0.479178 0 0 0.503647 0 1.16583C0 1.81332 0.465132 2.33142 1.1846 2.33142H1.19848L1.19864 2.33148ZM3.45659 9.99977H5.6001V6.23222C5.6001 6.03083 5.61409 5.82891 5.67073 5.68507C5.82562 5.282 6.17833 4.86477 6.77066 4.86477C7.54614 4.86477 7.85654 5.48345 7.85654 6.39058V9.99977H10V6.13111C10 4.05874 8.9426 3.09436 7.53226 3.09436C6.37598 3.09436 5.86815 3.77048 5.586 4.23098H5.60027V3.25278H3.4567C3.48468 3.88575 3.45654 10 3.45654 10L3.45659 9.99977Z" fill="white"/>
</svg>
