<svg width="92" height="40" viewBox="0 0 92 40" fill="none" xmlns="http://www.w3.org/2000/svg">
<path d="M6.59801 27L6.59801 12.4545H11.7827C12.9143 12.4545 13.8518 12.6605 14.5952 13.0724C15.3385 13.4844 15.8949 14.0478 16.2642 14.7628C16.6335 15.473 16.8182 16.2732 16.8182 17.1634C16.8182 18.0582 16.6312 18.8632 16.2571 19.5781C15.8878 20.2884 15.3291 20.8518 14.581 21.2685C13.8376 21.6804 12.9025 21.8864 11.7756 21.8864H8.21023V20.0256H11.5767C12.2917 20.0256 12.8717 19.9025 13.3168 19.6562C13.7618 19.4053 14.0885 19.0644 14.2969 18.6335C14.5052 18.2027 14.6094 17.7126 14.6094 17.1634C14.6094 16.6141 14.5052 16.1264 14.2969 15.7003C14.0885 15.2741 13.7595 14.9403 13.3097 14.6989C12.8646 14.4574 12.2775 14.3366 11.5483 14.3366H8.79261L8.79261 27H6.59801ZM23.679 27.2202C22.6563 27.2202 21.7637 26.9858 21.0014 26.517C20.2391 26.0483 19.6473 25.3925 19.2259 24.5497C18.8045 23.7069 18.5938 22.7221 18.5938 21.5952C18.5938 20.4635 18.8045 19.474 19.2259 18.6264C19.6473 17.7789 20.2391 17.1207 21.0014 16.652C21.7637 16.1832 22.6563 15.9489 23.679 15.9489C24.7017 15.9489 25.5942 16.1832 26.3565 16.652C27.1188 17.1207 27.7107 17.7789 28.1321 18.6264C28.5535 19.474 28.7642 20.4635 28.7642 21.5952C28.7642 22.7221 28.5535 23.7069 28.1321 24.5497C27.7107 25.3925 27.1188 26.0483 26.3565 26.517C25.5942 26.9858 24.7017 27.2202 23.679 27.2202ZM23.6861 25.4375C24.349 25.4375 24.8982 25.2623 25.3338 24.9119C25.7694 24.5616 26.0914 24.0952 26.2997 23.5128C26.5128 22.9304 26.6193 22.2888 26.6193 21.5881C26.6193 20.892 26.5128 20.2528 26.2997 19.6705C26.0914 19.0833 25.7694 18.6122 25.3338 18.2571C24.8982 17.902 24.349 17.7244 23.6861 17.7244C23.0185 17.7244 22.4645 17.902 22.0241 18.2571C21.5885 18.6122 21.2642 19.0833 21.0511 19.6705C20.8428 20.2528 20.7386 20.892 20.7386 21.5881C20.7386 22.2888 20.8428 22.9304 21.0511 23.5128C21.2642 24.0952 21.5885 24.5616 22.0241 24.9119C22.4645 25.2623 23.0185 25.4375 23.6861 25.4375ZM31.1346 27V16.0909H33.1871V17.8239H33.3008C33.4996 17.2367 33.85 16.7751 34.3519 16.4389C34.8585 16.098 35.4315 15.9276 36.0707 15.9276C36.2032 15.9276 36.3595 15.9323 36.5394 15.9418C36.7241 15.9512 36.8685 15.9631 36.9727 15.9773V18.0085C36.8874 17.9848 36.7359 17.9588 36.5181 17.9304C36.3003 17.8973 36.0825 17.8807 35.8647 17.8807C35.3628 17.8807 34.9154 17.9872 34.5224 18.2003C34.1341 18.4086 33.8263 18.6998 33.5991 19.0739C33.3718 19.4432 33.2582 19.8646 33.2582 20.3381V27H31.1346ZM44.5472 16.0909V17.7955H38.5884V16.0909H44.5472ZM40.1864 13.4773H42.31V23.7969C42.31 24.2088 42.3716 24.5189 42.4947 24.7273C42.6178 24.9309 42.7764 25.0705 42.9705 25.1463C43.1694 25.2173 43.3848 25.2528 43.6168 25.2528C43.7873 25.2528 43.9364 25.241 44.0643 25.2173C44.1921 25.1937 44.2915 25.1747 44.3626 25.1605L44.7461 26.9148C44.623 26.9621 44.4478 27.0095 44.2205 27.0568C43.9933 27.1089 43.7092 27.1373 43.3683 27.142C42.8095 27.1515 42.2887 27.0521 41.8058 26.8437C41.3228 26.6354 40.9322 26.3134 40.6339 25.8778C40.3356 25.4422 40.1864 24.8954 40.1864 24.2372V13.4773ZM52.0881 16.0909V17.7955H45.9233V16.0909H52.0881ZM47.6136 27V14.8267C47.6136 14.1449 47.7628 13.5791 48.0611 13.1293C48.3594 12.6747 48.7547 12.3362 49.2472 12.1136C49.7396 11.8864 50.2746 11.7727 50.8523 11.7727C51.2784 11.7727 51.643 11.8082 51.946 11.8793C52.2491 11.9455 52.474 12.0071 52.6207 12.0639L52.1236 13.7827C52.0241 13.7543 51.8963 13.7211 51.7401 13.6832C51.5838 13.6406 51.3944 13.6193 51.1719 13.6193C50.6558 13.6193 50.2865 13.7472 50.0639 14.0028C49.8461 14.2585 49.7372 14.6278 49.7372 15.1108V27H47.6136ZM58.4446 27.2202C57.4219 27.2202 56.5294 26.9858 55.767 26.517C55.0047 26.0483 54.4129 25.3925 53.9915 24.5497C53.5701 23.7069 53.3594 22.7221 53.3594 21.5952C53.3594 20.4635 53.5701 19.474 53.9915 18.6264C54.4129 17.7789 55.0047 17.1207 55.767 16.652C56.5294 16.1832 57.4219 15.9489 58.4446 15.9489C59.4673 15.9489 60.3598 16.1832 61.1222 16.652C61.8845 17.1207 62.4763 17.7789 62.8977 18.6264C63.3191 19.474 63.5298 20.4635 63.5298 21.5952C63.5298 22.7221 63.3191 23.7069 62.8977 24.5497C62.4763 25.3925 61.8845 26.0483 61.1222 26.517C60.3598 26.9858 59.4673 27.2202 58.4446 27.2202ZM58.4517 25.4375C59.1146 25.4375 59.6638 25.2623 60.0994 24.9119C60.535 24.5616 60.857 24.0952 61.0653 23.5128C61.2784 22.9304 61.3849 22.2888 61.3849 21.5881C61.3849 20.892 61.2784 20.2528 61.0653 19.6705C60.857 19.0833 60.535 18.6122 60.0994 18.2571C59.6638 17.902 59.1146 17.7244 58.4517 17.7244C57.7841 17.7244 57.2301 17.902 56.7898 18.2571C56.3542 18.6122 56.0298 19.0833 55.8168 19.6705C55.6084 20.2528 55.5043 20.892 55.5043 21.5881C55.5043 22.2888 55.6084 22.9304 55.8168 23.5128C56.0298 24.0952 56.3542 24.5616 56.7898 24.9119C57.2301 25.2623 57.7841 25.4375 58.4517 25.4375ZM68.0238 12.4545V27H65.9002V12.4545H68.0238ZM70.8807 27V16.0909H73.0043V27H70.8807ZM71.9531 14.4077C71.5838 14.4077 71.2666 14.2846 71.0014 14.0384C70.741 13.7874 70.6108 13.4891 70.6108 13.1435C70.6108 12.7931 70.741 12.4948 71.0014 12.2486C71.2666 11.9976 71.5838 11.8722 71.9531 11.8722C72.3224 11.8722 72.6373 11.9976 72.8977 12.2486C73.1629 12.4948 73.2955 12.7931 73.2955 13.1435C73.2955 13.4891 73.1629 13.7874 72.8977 14.0384C72.6373 14.2846 72.3224 14.4077 71.9531 14.4077ZM80.4563 27.2202C79.4336 27.2202 78.5411 26.9858 77.7788 26.517C77.0165 26.0483 76.4246 25.3925 76.0032 24.5497C75.5818 23.7069 75.3711 22.7221 75.3711 21.5952C75.3711 20.4635 75.5818 19.474 76.0032 18.6264C76.4246 17.7789 77.0165 17.1207 77.7788 16.652C78.5411 16.1832 79.4336 15.9489 80.4563 15.9489C81.479 15.9489 82.3716 16.1832 83.1339 16.652C83.8962 17.1207 84.488 17.7789 84.9094 18.6264C85.3308 19.474 85.5415 20.4635 85.5415 21.5952C85.5415 22.7221 85.3308 23.7069 84.9094 24.5497C84.488 25.3925 83.8962 26.0483 83.1339 26.517C82.3716 26.9858 81.479 27.2202 80.4563 27.2202ZM80.4634 25.4375C81.1263 25.4375 81.6755 25.2623 82.1112 24.9119C82.5468 24.5616 82.8687 24.0952 83.0771 23.5128C83.2901 22.9304 83.3967 22.2888 83.3967 21.5881C83.3967 20.892 83.2901 20.2528 83.0771 19.6705C82.8687 19.0833 82.5468 18.6122 82.1112 18.2571C81.6755 17.902 81.1263 17.7244 80.4634 17.7244C79.7958 17.7244 79.2418 17.902 78.8015 18.2571C78.3659 18.6122 78.0415 19.0833 77.8285 19.6705C77.6201 20.2528 77.516 20.892 77.516 21.5881C77.516 22.2888 77.6201 22.9304 77.8285 23.5128C78.0415 24.0952 78.3659 24.5616 78.8015 24.9119C79.2418 25.2623 79.7958 25.4375 80.4634 25.4375Z" fill="#0DB760"/>
<path d="M91.75 20C91.75 22.6782 90.5027 25.2496 88.2059 27.6106C85.908 29.9727 82.5707 32.1114 78.4272 33.9129C70.1412 37.5155 58.6766 39.75 46 39.75C33.3234 39.75 21.8588 37.5155 13.5728 33.9129C9.42934 32.1114 6.09203 29.9727 3.7941 27.6106C1.49731 25.2496 0.25 22.6782 0.25 20C0.25 17.3218 1.49731 14.7504 3.7941 12.3894C6.09203 10.0273 9.42934 7.88862 13.5728 6.08713C21.8588 2.48449 33.3234 0.25 46 0.25C58.6766 0.25 70.1412 2.48449 78.4272 6.08713C82.5707 7.88862 85.908 10.0273 88.2059 12.3894C90.5027 14.7504 91.75 17.3218 91.75 20Z" stroke="#0DB760" stroke-width="0.5"/>
</svg>
